<svg width="58" height="34" viewBox="0 0 58 34" fill="none" xmlns="http://www.w3.org/2000/svg">
<path d="M2 16.2066L56 1L14.5333 20.0413L2 16.2066Z" fill="white"/>
<path d="M18 21.9587L26.0096 26.3223L38.2667 33L56 1L18 21.9587Z" fill="white"/>
<path d="M56 1L14.5333 20.0413L17.0667 33L18 21.9587L56 1Z" fill="white"/>
<path d="M18 21.9587L17.0667 33L26.0096 26.3223L18 21.9587Z" fill="white"/>
<path d="M56 1L2 16.2066L14.5333 20.0413M56 1L14.5333 20.0413M56 1L38.2667 33L26.0096 26.3223M56 1L18 21.9587M14.5333 20.0413L17.0667 33M18 21.9587L17.0667 33M18 21.9587L26.0096 26.3223M17.0667 33L26.0096 26.3223" stroke="black"/>
</svg>
